# xmcd
# 
# Track frame offsets:
#	150
#	16832
#	38493
#	58118
#	82476
#	99695
#	122630
#	148273
#	186216
#
# Disc length: 2825 seconds
#
# Revision: 1
# Processed by: cddbd v1.4PL0 Copyright (c) Steve Scherf et al.
# Submitted via: Audio-CD-Archiv 2.10.438
#
DISCID=7d0b0709
DTITLE=X `Oul - Funkin Blues
DYEAR=1900
DGENRE=blues
TTITLE0=Part time man
TTITLE1=Dam´n your eyes
TTITLE2=Thousand eyes
TTITLE3=Use me
TTITLE4=Rip the sack
TTITLE5=Don´t change horses
TTITLE6=Prisoner of dream
TTITLE7=Satisfied
TTITLE8=Helloween
EXTD=
EXTT0=
EXTT1=
EXTT2=
EXTT3=
EXTT4=
EXTT5=
EXTT6=
EXTT7=
EXTT8=
PLAYORDER=
